# xmcd CD database file
#
# Track frame offsets:
#	150
#	39935
#	75580
#	129451
#	172792
#	214048
#	262980
#	301370
#
# Disc length: 4588 seconds
#
# Revision: 0
# Processed by: cddbd v1.5.2PL0 Copyright (c) Steve Scherf et al.
# Submitted via: CDex 1.51
#
DISCID=5911ea08
DTITLE=Al Foster Quartet - Recorded March 7, 2012 at The Village Vanguard in New York, N.Y.
DYEAR=2012
DGENRE=Jazz
TTITLE0=Al Foster Quartet - Aloysius
TTITLE1=Al Foster Quartet - Little B's Poem
TTITLE2=Al Foster Quartet - Con Alma
TTITLE3=Al Foster Quartet - Round Midnight
TTITLE4=Al Foster Quartet - Peter's Mood
TTITLE5=Al Foster Quartet - It Could Happen To You
TTITLE6=Al Foster Quartet - Oooh What You Do To Me
TTITLE7=Al Foster Quartet - St. Thomas
EXTD=YEAR: 2012
EXTT0=
EXTT1=
EXTT2=
EXTT3=
EXTT4=
EXTT5=
EXTT6=
EXTT7=
PLAYORDER=
